<svg width="900" height="540" viewBox="0 0 900 540" fill="none" xmlns="http://www.w3.org/2000/svg">
  <defs>
    <linearGradient id="areaDark" x1="0" y1="0" x2="0" y2="1">
      <stop stop-color="#19d3c5" stop-opacity="0.32"/>
      <stop offset="1" stop-color="#19d3c5" stop-opacity="0"/>
    </linearGradient>
    <radialGradient id="glowDark" cx="0.5" cy="0.3" r="0.6">
      <stop stop-color="#2f6bff" stop-opacity="0.18"/>
      <stop offset="1" stop-color="#2f6bff" stop-opacity="0"/>
    </radialGradient>
  </defs>

  <rect width="900" height="540" fill="url(#glowDark)" opacity="0.55"/>

  <line x1="110" y1="420" x2="820" y2="420" stroke="#ffffff" stroke-width="1" stroke-opacity="0.12" />
  <line x1="120" y1="140" x2="120" y2="420" stroke="#ffffff" stroke-width="1" stroke-opacity="0.18" />

  <path d="M120 420 L120 360 C215 300 285 260 360 250 C435 240 485 270 545 230 C610 190 700 200 820 170 L820 420 Z"
        fill="url(#areaDark)"/>
  <path d="M120 360 C215 300 285 260 360 250 C435 240 485 270 545 230 C610 190 700 200 820 170"
        fill="none" stroke="#19d3c5" stroke-width="3.5" stroke-linecap="round"/>
  <path d="M120 360 C215 300 285 260 360 250 C435 240 485 270 545 230 C610 190 700 200 820 170"
        fill="none" stroke="#6ee7ff" stroke-width="1.5" stroke-opacity="0.65" stroke-linecap="round"/>

  <g fill="#19d3c5" stroke="#0b1220" stroke-width="1" stroke-opacity="0.35">
    <circle cx="120" cy="360" r="6"/>
    <circle cx="240" cy="300" r="6"/>
    <circle cx="360" cy="250" r="6"/>
    <circle cx="480" cy="270" r="6"/>
    <circle cx="600" cy="190" r="6"/>
    <circle cx="740" cy="190" r="6"/>
    <circle cx="820" cy="170" r="7"/>
  </g>

  <line x1="700" y1="140" x2="700" y2="420" stroke="#ffffff" stroke-width="1" stroke-opacity="0.28" stroke-dasharray="6 6"/>
  <circle cx="700" cy="190" r="8" fill="#2f6bff" stroke="#19d3c5" stroke-width="2" stroke-opacity="0.8"/>
  <rect x="638" y="104" rx="10" ry="10" width="136" height="52" fill="#0b1220" fill-opacity="0.9" stroke="#19d3c5" stroke-opacity="0.6" stroke-width="1.4"/>
  <text x="652" y="132" fill="#e5e7eb" font-family="Inter, sans-serif" font-size="13" font-weight="700">Hoje</text>
  <text x="652" y="150" fill="#6ee7ff" font-family="Inter, sans-serif" font-size="12">Ajustar microciclo</text>

  <rect x="140" y="170" rx="14" ry="14" width="160" height="34" fill="#0b1220" fill-opacity="0.9" stroke="#19d3c5" stroke-opacity="0.45"/>
  <circle cx="160" cy="187" r="6" fill="#fbbf24"/>
  <text x="176" y="192" fill="#e5e7eb" font-family="Inter, sans-serif" font-size="12" font-weight="600">Risco moderado</text>

  <text x="108" y="436" fill="#e5e7eb" fill-opacity="0.6" font-family="Inter, sans-serif" font-size="11">0</text>
  <text x="795" y="436" fill="#e5e7eb" fill-opacity="0.6" font-family="Inter, sans-serif" font-size="11">Semana</text>
  <text x="74" y="148" fill="#e5e7eb" fill-opacity="0.6" font-family="Inter, sans-serif" font-size="11" transform="rotate(-90 74 148)">Probabilidade de lesão</text>
</svg>
